  0
SECTION
  2
HEADER
  9
$ACADVER
  1
AC1015
  9
$HANDSEED
  5
FFFF
  9
$INSUNITS
 70
1
  9
$DIMEXE
 40
0.18
  9
$TEXTSTYLE
  7
Standard
  9
$TEXTSTYLE
  7
Roman
  9
$LIMMIN
 10
0.0
 20
0.0
  0
ENDSEC
  0
SECTION
  2
TABLES
  0
TABLE
  2
VPORT
  5
8
100
AcDbSymbolTable
 70
1
  0
VPORT
  5
30
100
AcDbSymbolTableRecord
100
AcDbViewportTableRecord
  2
*Active
 70
0
 10
0.0
 20
0.0
 11
1.0
 21
1.0
 12
286.30555555555549
 22
148.5
 13
0.0
 23
0.0
 14
0.0
 24
0.0
 15
10.0
 25
10.0
 16
0.0
 26
0.0
 36
1.0
 17
0.0
 27
0.0
 37
0.0
 40
297.0
 41
1.92798353909465
 42
50.0
 43
0.0
 44
0.0
 50
0.0
 51
0.0
 71
0
 72
100
 73
1
 74
3
 75
1
 76
1
 77
0
 78
0
281
0
 65
1
110
0.0
120
0.0
130
0.0
111
1.0
121
0.0
131
0.0
112
0.0
122
1.0
132
0.0
 79
0
146
0.0
  0
ENDTAB
  0
TABLE
  2
LTYPE
  5
5
100
AcDbSymbolTable
 70
25
  0
LTYPE
  5
14
100
AcDbSymbolTableRecord
100
AcDbLinetypeTableRecord
  2
BYBLOCK
 70
0
  3

 72
65
 73
0
 40
0.0
  0
LTYPE
  5
15
100
AcDbSymbolTableRecord
100
AcDbLinetypeTableRecord
  2
BYLAYER
 70
0
  3

 72
65
 73
0
 40
0.0
  0
LTYPE
  5
16
100
AcDbSymbolTableRecord
100
AcDbLinetypeTableRecord
  2
CONTINUOUS
 70
0
  3
Solid line
 72
65
 73
0
 40
0.0
  0
LTYPE
  5
31
100
AcDbSymbolTableRecord
100
AcDbLinetypeTableRecord
  2
ACAD_ISO02W100
 70
0
  3
ISO Dashed __ __ __ __ __ __ __ __ __ __ _
 72
65
 73
2
 40
15.0
 49
12.0
 74
0
 49
-3.0
 74
0
  0
LTYPE
  5
32
100
AcDbSymbolTableRecord
100
AcDbLinetypeTableRecord
  2
ACAD_ISO03W100
 70
0
  3
ISO Dashed with Distance __    __    __    _
 72
65
 73
2
 40
30.0
 49
12.0
 74
0
 49
-18.0
 74
0
  0
LTYPE
  5
33
100
AcDbSymbolTableRecord
100
AcDbLinetypeTableRecord
  2
ACAD_ISO04W100
 70
0
  3
ISO Long Dashed Dotted ____ . ____ . __
 72
65
 73
4
 40
30.0
 49
24.0
 74
0
 49
-3.0
 74
0
 49
0.0
 74
0
 49
-3.0
 74
0
  0
LTYPE
  5
34
100
AcDbSymbolTableRecord
100
AcDbLinetypeTableRecord
  2
ACAD_ISO05W100
 70
0
  3
ISO Long Dashed Double Dotted ____ .. __
 72
65
 73
6
 40
33.0
 49
24.0
 74
0
 49
-3.0
 74
0
 49
0.0
 74
0
 49
-3.0
 74
0
 49
0.0
 74
0
 49
-3.0
 74
0
  0
LTYPE
  5
35
100
AcDbSymbolTableRecord
100
AcDbLinetypeTableRecord
  2
BORDER
 70
0
  3
Border __ __ . __ __ . __ __ . __ __ . __ __ .
 72
65
 73
6
 40
44.450000000000003
 49
12.699999999999999
 74
0
 49
-6.3499999999999996
 74
0
 49
12.699999999999999
 74
0
 49
-6.3499999999999996
 74
0
 49
0.0
 74
0
 49
-6.3499999999999996
 74
0
  0
LTYPE
  5
36
100
AcDbSymbolTableRecord
100
AcDbLinetypeTableRecord
  2
BORDER2
 70
0
  3
Border (.5x) __.__.__.__.__.__.__.__.__.__.__.
 72
65
 73
6
 40
22.225000000000001
 49
6.3499999999999996
 74
0
 49
-3.1749999999999998
 74
0
 49
6.3499999999999996
 74
0
 49
-3.1749999999999998
 74
0
 49
0.0
 74
0
 49
-3.1749999999999998
 74
0
  0
LTYPE
  5
37
100
AcDbSymbolTableRecord
100
AcDbLinetypeTableRecord
  2
BORDERX2
 70
0
  3
Border (2x) ____  ____  .  ____  ____  .  ___
 72
65
 73
6
 40
88.900000000000006
 49
25.399999999999999
 74
0
 49
-12.699999999999999
 74
0
 49
25.399999999999999
 74
0
 49
-12.699999999999999
 74
0
 49
0.0
 74
0
 49
-12.699999999999999
 74
0
  0
LTYPE
  5
38
100
AcDbSymbolTableRecord
100
AcDbLinetypeTableRecord
  2
CENTER
 70
0
  3
Center ____ _ ____ _ ____ _ ____ _ ____ _ ____
 72
65
 73
4
 40
50.799999999999997
 49
31.75
 74
0
 49
-6.3499999999999996
 74
0
 49
6.3499999999999996
 74
0
 49
-6.3499999999999996
 74
0
  0
LTYPE
  5
39
100
AcDbSymbolTableRecord
100
AcDbLinetypeTableRecord
  2
CENTER2
 70
0
  3
Center (.5x) ___ _ ___ _ ___ _ ___ _ ___ _ ___
 72
65
 73
4
 40
28.574999999999999
 49
19.050000000000001
 74
0
 49
-3.1749999999999998
 74
0
 49
3.1749999999999998
 74
0
 49
-3.1749999999999998
 74
0
  0
LTYPE
  5
3A
100
AcDbSymbolTableRecord
100
AcDbLinetypeTableRecord
  2
CENTERX2
 70
0
  3
Center (2x) ________  __  ________  __  _____
 72
65
 73
4
 40
101.59999999999999
 49
63.5
 74
0
 49
-12.699999999999999
 74
0
 49
12.699999999999999
 74
0
 49
-12.699999999999999
 74
0
  0
LTYPE
  5
3B
100
AcDbSymbolTableRecord
100
AcDbLinetypeTableRecord
  2
DASHDOT
 70
0
  3
Dash dot __ . __ . __ . __ . __ . __ . __ . __
 72
65
 73
4
 40
25.399999999999999
 49
12.699999999999999
 74
0
 49
-6.3499999999999996
 74
0
 49
0.0
 74
0
 49
-6.3499999999999996
 74
0
  0
LTYPE
  5
3C
100
AcDbSymbolTableRecord
100
AcDbLinetypeTableRecord
  2
DASHDOT2
 70
0
  3
Dash dot (.5x) _._._._._._._._._._._._._._._.
 72
65
 73
4
 40
12.699999999999999
 49
6.3499999999999996
 74
0
 49
-3.1749999999999998
 74
0
 49
0.0
 74
0
 49
-3.1749999999999998
 74
0
  0
LTYPE
  5
3D
100
AcDbSymbolTableRecord
100
AcDbLinetypeTableRecord
  2
DASHDOTX2
 70
0
  3
Dash dot (2x) ____  .  ____  .  ____  .  ___
 72
65
 73
4
 40
50.799999999999997
 49
25.399999999999999
 74
0
 49
-12.699999999999999
 74
0
 49
0.0
 74
0
 49
-12.699999999999999
 74
0
  0
LTYPE
  5
3E
100
AcDbSymbolTableRecord
100
AcDbLinetypeTableRecord
  2
DASHED
 70
0
  3
Dashed __ __ __ __ __ __ __ __ __ __ __ __ __ _
 72
65
 73
2
 40
19.050000000000001
 49
12.699999999999999
 74
0
 49
-6.3499999999999996
 74
0
  0
LTYPE
  5
3F
100
AcDbSymbolTableRecord
100
AcDbLinetypeTableRecord
  2
DASHED2
 70
0
  3
Dashed (.5x) _ _ _ _ _ _ _ _ _ _ _ _ _ _ _ _ _
 72
65
 73
2
 40
9.5250000000000004
 49
6.3499999999999996
 74
0
 49
-3.1749999999999998
 74
0
  0
LTYPE
  5
40
100
AcDbSymbolTableRecord
100
AcDbLinetypeTableRecord
  2
DASHEDX2
 70
0
  3
Dashed (2x) ____  ____  ____  ____  ____  ___
 72
65
 73
2
 40
38.100000000000001
 49
25.399999999999999
 74
0
 49
-12.699999999999999
 74
0
  0
LTYPE
  5
41
100
AcDbSymbolTableRecord
100
AcDbLinetypeTableRecord
  2
DIVIDE
 70
0
  3
Divide ____ . . ____ . . ____ . . ____ . . ____
 72
65
 73
6
 40
31.75
 49
12.699999999999999
 74
0
 49
-6.3499999999999996
 74
0
 49
0.0
 74
0
 49
-6.3499999999999996
 74
0
 49
0.0
 74
0
 49
-6.3499999999999996
 74
0
  0
LTYPE
  5
42
100
AcDbSymbolTableRecord
100
AcDbLinetypeTableRecord
  2
DIVIDE2
 70
0
  3
Divide (.5x) __..__..__..__..__..__..__..__.._
 72
65
 73
6
 40
15.875
 49
6.3499999999999996
 74
0
 49
-3.1749999999999998
 74
0
 49
0.0
 74
0
 49
-3.1749999999999998
 74
0
 49
0.0
 74
0
 49
-3.1749999999999998
 74
0
  0
LTYPE
  5
43
100
AcDbSymbolTableRecord
100
AcDbLinetypeTableRecord
  2
DIVIDEX2
 70
0
  3
Divide (2x) ________  .  .  ________  .  .  _
 72
65
 73
6
 40
63.5
 49
25.399999999999999
 74
0
 49
-12.699999999999999
 74
0
 49
0.0
 74
0
 49
-12.699999999999999
 74
0
 49
0.0
 74
0
 49
-12.699999999999999
 74
0
  0
LTYPE
  5
44
100
AcDbSymbolTableRecord
100
AcDbLinetypeTableRecord
  2
DOT
 70
0
  3
Dot . . . . . . . . . . . . . . . . . . . . . .
 72
65
 73
2
 40
6.3499999999999996
 49
0.0
 74
0
 49
-6.3499999999999996
 74
0
  0
LTYPE
  5
45
100
AcDbSymbolTableRecord
100
AcDbLinetypeTableRecord
  2
DOT2
 70
0
  3
Dot (.5x) .....................................
 72
65
 73
2
 40
3.1749999999999998
 49
0.0
 74
0
 49
-3.1749999999999998
 74
0
  0
LTYPE
  5
46
100
AcDbSymbolTableRecord
100
AcDbLinetypeTableRecord
  2
DOTX2
 70
0
  3
Dot (2x) .  .  .  .  .  .  .  .  .  .  .  .  .
 72
65
 73
2
 40
12.699999999999999
 49
0.0
 74
0
 49
-12.699999999999999
 74
0
  0
ENDTAB
  0
TABLE
  2
LAYER
  5
2
100
AcDbSymbolTable
 70
5
  0
LAYER
  5
10
100
AcDbSymbolTableRecord
100
AcDbLayerTableRecord
  2
0
 70
0
 62
250
  6
CONTINUOUS
370
100
390
F
  0
LAYER
  5
47
100
AcDbSymbolTableRecord
100
AcDbLayerTableRecord
  2
H
 70
0
 62
7
  6
CONTINUOUS
370
100
390
F
  0
LAYER
  5
48
100
AcDbSymbolTableRecord
100
AcDbLayerTableRecord
  2
P
 70
0
 62
250
  6
CONTINUOUS
370
100
390
F
  0
LAYER
  5
49
100
AcDbSymbolTableRecord
100
AcDbLayerTableRecord
  2
Text
 70
0
 62
250
  6
CONTINUOUS
370
100
390
F
  0
LAYER
  5
4A
100
AcDbSymbolTableRecord
100
AcDbLayerTableRecord
  2
Images
 70
0
 62
250
  6
CONTINUOUS
370
100
390
F
  0
ENDTAB
  0
TABLE
  2
STYLE
  5
3
100
AcDbSymbolTable
 70
1
  0
STYLE
  5
11
100
AcDbSymbolTableRecord
100
AcDbTextStyleTableRecord
  2
Standard
 70
0
 40
0.0
 41
0.75
 50
0.0
 71
0
 42
2.5
  3
txt
  4

  0
ENDTAB
  0
TABLE
  2
VIEW
  5
6
100
AcDbSymbolTable
 70
0
  0
ENDTAB
  0
TABLE
  2
UCS
  5
7
100
AcDbSymbolTable
 70
0
  0
ENDTAB
  0
TABLE
  2
APPID
  5
9
100
AcDbSymbolTable
 70
1
  0
APPID
  5
12
100
AcDbSymbolTableRecord
100
AcDbRegAppTableRecord
  2
ACAD
 70
0
  0
ENDTAB
  0
TABLE
  2
DIMSTYLE
  5
A
100
AcDbSymbolTable
 70
1
100
AcDbDimStyleTable
 71
0
  0
DIMSTYLE
105
27
100
AcDbSymbolTableRecord
100
AcDbDimStyleTableRecord
  2
Standard
 41
1.0
 42
1.0
 43
3.75
 44
1.0
 70
0
 73
0
 74
0
 77
1
 78
8
140
1.0
141
2.5
143
0.03937007874016
147
1.0
171
3
172
1
271
2
272
2
274
3
278
44
283
0
284
8
340
11
  0
ENDTAB
  0
TABLE
  2
BLOCK_RECORD
  5
1
100
AcDbSymbolTable
 70
1
  0
BLOCK_RECORD
  5
1F
100
AcDbSymbolTableRecord
100
AcDbBlockTableRecord
  2
*Model_Space
340
22
  0
BLOCK_RECORD
  5
1B
100
AcDbSymbolTableRecord
100
AcDbBlockTableRecord
  2
*Paper_Space
340
1E
  0
BLOCK_RECORD
  5
23
100
AcDbSymbolTableRecord
100
AcDbBlockTableRecord
  2
*Paper_Space0
340
26
  0
ENDTAB
  0
ENDSEC
  0
SECTION
  2
BLOCKS
  0
BLOCK
  5
20
100
AcDbEntity
  8
0
100
AcDbBlockBegin
  2
*Model_Space
 70
0
 10
0.0
 20
0.0
 30
0.0
  3
*Model_Space
  1

  0
ENDBLK
  5
21
100
AcDbEntity
  8
0
100
AcDbBlockEnd
  0
BLOCK
  5
1C
100
AcDbEntity
 67
1
  8
0
100
AcDbBlockBegin
  2
*Paper_Space
 70
0
 10
0.0
 20
0.0
 30
0.0
  3
*Paper_Space
  1

  0
ENDBLK
  5
1D
100
AcDbEntity
 67
1
  8
0
100
AcDbBlockEnd
  0
BLOCK
  5
24
100
AcDbEntity
  8
0
100
AcDbBlockBegin
  2
*Paper_Space0
 70
0
 10
0.0
 20
0.0
 30
0.0
  3
*Paper_Space0
  1

  0
ENDBLK
  5
25
100
AcDbEntity
  8
0
100
AcDbBlockEnd
  0
ENDSEC
  0
SECTION
  2
ENTITIES
  0
MTEXT
  5
4B
100
AcDbEntity
100
AcDbMText
  8
Text
 62
240
370
-1
  6
BYLAYER
 10
198.0
 20
0.0
 30
0.0
 40
1.0
 41
99.0
 71
4
 72
5
  1
Unregistered Version - http://www.aidecad.com
  7
Standard
 50
0.0
 73
2
 44
1.0
  0
LWPOLYLINE
  5
4C
  8
P
 62
0
370
-1
  6
CONTINUOUS
100
AcDbEntity
100
AcDbPolyline
 90
260
 70
0
 10
26.555555555555557
 20
495.55555555555554
 10
25.888888888888889
 20
495.55555555555554
 10
25.333333333333332
 20
495.55555555555554
 10
24.666666666666668
 20
495.55555555555554
 10
24.0
 20
495.66666666666669
 10
23.444444444444443
 20
495.66666666666669
 10
22.888888888888889
 20
495.77777777777777
 10
22.222222222222221
 20
495.88888888888891
 10
21.666666666666668
 20
496.0
 10
21.111111111111111
 20
496.11111111111109
 10
20.444444444444443
 20
496.22222222222223
 10
19.888888888888889
 20
496.44444444444446
 10
19.333333333333332
 20
496.55555555555554
 10
18.777777777777779
 20
496.77777777777777
 10
18.222222222222221
 20
496.88888888888891
 10
17.666666666666668
 20
497.11111111111109
 10
17.111111111111111
 20
497.33333333333331
 10
16.555555555555557
 20
497.55555555555554
 10
16.0
 20
497.77777777777777
 10
15.444444444444445
 20
498.11111111111109
 10
15.0
 20
498.33333333333331
 10
14.444444444444445
 20
498.66666666666669
 10
14.0
 20
498.88888888888891
 10
13.444444444444445
 20
499.22222222222223
 10
13.0
 20
499.55555555555554
 10
12.444444444444445
 20
499.88888888888891
 10
12.0
 20
500.22222222222223
 10
11.555555555555555
 20
500.55555555555554
 10
11.111111111111111
 20
500.88888888888891
 10
10.666666666666666
 20
501.22222222222223
 10
10.222222222222221
 20
501.55555555555554
 10
9.7777777777777786
 20
502.0
 10
9.3333333333333339
 20
502.33333333333331
 10
8.8888888888888893
 20
502.77777777777777
 10
8.4444444444444446
 20
503.22222222222223
 10
8.1111111111111107
 20
503.66666666666669
 10
7.666666666666667
 20
504.11111111111109
 10
7.333333333333333
 20
504.44444444444446
 10
7.0
 20
505.0
 10
6.5555555555555554
 20
505.44444444444446
 10
6.2222222222222223
 20
505.88888888888891
 10
5.8888888888888893
 20
506.33333333333331
 10
5.5555555555555554
 20
506.77777777777777
 10
5.2222222222222223
 20
507.33333333333331
 10
5.0
 20
507.77777777777777
 10
4.666666666666667
 20
508.33333333333331
 10
4.4444444444444446
 20
508.88888888888891
 10
4.1111111111111107
 20
509.33333333333331
 10
3.8888888888888888
 20
509.88888888888891
 10
3.6666666666666665
 20
510.44444444444446
 10
3.4444444444444446
 20
511.0
 10
3.2222222222222223
 20
511.55555555555554
 10
3.0
 20
512.0
 10
2.7777777777777777
 20
512.66666666666663
 10
2.5555555555555554
 20
513.22222222222217
 10
2.4444444444444446
 20
513.77777777777783
 10
2.2222222222222223
 20
514.33333333333337
 10
2.1111111111111112
 20
514.88888888888891
 10
2.0
 20
515.44444444444446
 10
1.8888888888888888
 20
516.11111111111109
 10
1.7777777777777777
 20
516.66666666666663
 10
1.6666666666666667
 20
517.33333333333337
 10
1.6666666666666667
 20
517.88888888888891
 10
1.5555555555555556
 20
518.55555555555554
 10
1.5555555555555556
 20
519.11111111111109
 10
4.4444444444444446
 20
519.11111111111109
 10
4.4444444444444446
 20
522.0
 10
1.5555555555555556
 20
522.0
 10
1.5555555555555556
 20
522.66666666666663
 10
1.6666666666666667
 20
523.22222222222217
 10
1.6666666666666667
 20
523.88888888888891
 10
1.7777777777777777
 20
524.44444444444446
 10
1.8888888888888888
 20
525.11111111111109
 10
2.0
 20
525.66666666666663
 10
2.1111111111111112
 20
526.22222222222217
 10
2.2222222222222223
 20
526.77777777777783
 10
2.4444444444444446
 20
527.44444444444446
 10
2.5555555555555554
 20
528.0
 10
2.7777777777777777
 20
528.55555555555554
 10
3.0
 20
529.11111111111109
 10
3.2222222222222223
 20
529.66666666666663
 10
3.4444444444444446
 20
530.22222222222217
 10
3.6666666666666665
 20
530.77777777777783
 10
3.8888888888888888
 20
531.22222222222217
 10
4.1111111111111107
 20
531.77777777777783
 10
4.4444444444444446
 20
532.33333333333337
 10
4.666666666666667
 20
532.77777777777783
 10
5.0
 20
533.33333333333337
 10
5.2222222222222223
 20
533.77777777777783
 10
5.5555555555555554
 20
534.33333333333337
 10
5.8888888888888893
 20
534.77777777777783
 10
6.2222222222222223
 20
535.22222222222217
 10
6.5555555555555554
 20
535.77777777777783
 10
7.0
 20
536.22222222222217
 10
7.333333333333333
 20
536.66666666666663
 10
7.666666666666667
 20
537.11111111111109
 10
8.1111111111111107
 20
537.55555555555554
 10
8.4444444444444446
 20
537.88888888888891
 10
8.8888888888888893
 20
538.33333333333337
 10
9.3333333333333339
 20
538.77777777777783
 10
9.7777777777777786
 20
539.11111111111109
 10
10.222222222222221
 20
539.55555555555554
 10
10.666666666666666
 20
539.88888888888891
 10
11.111111111111111
 20
540.22222222222217
 10
11.555555555555555
 20
540.66666666666663
 10
12.0
 20
541.0
 10
12.444444444444445
 20
541.33333333333337
 10
13.0
 20
541.66666666666663
 10
13.444444444444445
 20
541.88888888888891
 10
14.0
 20
542.22222222222217
 10
14.444444444444445
 20
542.55555555555554
 10
15.0
 20
542.77777777777783
 10
15.444444444444445
 20
543.0
 10
16.0
 20
543.33333333333337
 10
16.555555555555557
 20
543.55555555555554
 10
17.111111111111111
 20
543.77777777777783
 10
17.666666666666668
 20
544.0
 10
18.222222222222221
 20
544.22222222222217
 10
18.777777777777779
 20
544.33333333333337
 10
19.333333333333332
 20
544.55555555555554
 10
19.888888888888889
 20
544.66666666666663
 10
20.444444444444443
 20
544.88888888888891
 10
21.111111111111111
 20
545.0
 10
21.666666666666668
 20
545.11111111111109
 10
22.222222222222221
 20
545.22222222222217
 10
22.888888888888889
 20
545.33333333333337
 10
23.444444444444443
 20
545.44444444444446
 10
24.0
 20
545.44444444444446
 10
24.666666666666668
 20
545.55555555555554
 10
25.333333333333332
 20
545.55555555555554
 10
25.888888888888889
 20
545.55555555555554
 10
26.555555555555557
 20
545.55555555555554
 10
27.222222222222221
 20
545.55555555555554
 10
27.777777777777779
 20
545.55555555555554
 10
28.444444444444443
 20
545.55555555555554
 10
29.111111111111111
 20
545.44444444444446
 10
29.666666666666668
 20
545.44444444444446
 10
30.333333333333332
 20
545.33333333333337
 10
31.0
 20
545.22222222222217
 10
31.555555555555557
 20
545.11111111111109
 10
32.222222222222221
 20
545.0
 10
32.777777777777779
 20
544.77777777777783
 10
33.333333333333336
 20
544.66666666666663
 10
34.0
 20
544.44444444444446
 10
34.555555555555557
 20
544.33333333333337
 10
35.111111111111114
 20
544.11111111111109
 10
35.666666666666664
 20
543.88888888888891
 10
36.222222222222221
 20
543.66666666666663
 10
36.777777777777779
 20
543.44444444444446
 10
37.333333333333336
 20
543.11111111111109
 10
37.888888888888886
 20
542.88888888888891
 10
38.444444444444443
 20
542.55555555555554
 10
39.0
 20
542.33333333333337
 10
39.555555555555557
 20
542.0
 10
40.0
 20
541.66666666666663
 10
40.555555555555557
 20
541.33333333333337
 10
41.0
 20
541.0
 10
41.555555555555557
 20
540.66666666666663
 10
42.0
 20
540.22222222222217
 10
42.444444444444443
 20
539.88888888888891
 10
42.888888888888886
 20
539.44444444444446
 10
43.333333333333336
 20
539.11111111111109
 10
43.777777777777779
 20
538.66666666666663
 10
44.222222222222221
 20
538.22222222222217
 10
44.666666666666664
 20
537.88888888888891
 10
45.111111111111114
 20
537.44444444444446
 10
45.444444444444443
 20
537.0
 10
45.888888888888886
 20
536.44444444444446
 10
46.222222222222221
 20
536.0
 10
46.555555555555557
 20
535.55555555555554
 10
46.888888888888886
 20
535.11111111111109
 10
47.333333333333336
 20
534.55555555555554
 10
47.666666666666664
 20
534.11111111111109
 10
47.888888888888886
 20
533.55555555555554
 10
48.222222222222221
 20
533.0
 10
48.555555555555557
 20
532.55555555555554
 10
48.777777777777779
 20
532.0
 10
49.111111111111114
 20
531.44444444444446
 10
49.333333333333336
 20
530.88888888888891
 10
49.555555555555557
 20
530.33333333333337
 10
49.777777777777779
 20
529.77777777777783
 10
50.0
 20
529.22222222222217
 10
50.222222222222221
 20
528.55555555555554
 10
50.444444444444443
 20
528.0
 10
50.555555555555557
 20
527.44444444444446
 10
50.777777777777779
 20
526.77777777777783
 10
50.888888888888886
 20
526.22222222222217
 10
51.0
 20
525.55555555555554
 10
51.222222222222221
 20
525.0
 10
51.222222222222221
 20
524.33333333333337
 10
51.333333333333336
 20
523.77777777777783
 10
51.444444444444443
 20
523.11111111111109
 10
51.444444444444443
 20
522.44444444444446
 10
51.555555555555557
 20
521.88888888888891
 10
51.555555555555557
 20
521.22222222222217
 10
51.555555555555557
 20
520.55555555555554
 10
51.555555555555557
 20
519.88888888888891
 10
51.555555555555557
 20
519.22222222222217
 10
51.444444444444443
 20
518.66666666666663
 10
51.444444444444443
 20
518.0
 10
51.333333333333336
 20
517.33333333333337
 10
51.222222222222221
 20
516.77777777777783
 10
51.222222222222221
 20
516.11111111111109
 10
51.0
 20
515.55555555555554
 10
50.888888888888886
 20
514.88888888888891
 10
50.777777777777779
 20
514.33333333333337
 10
50.555555555555557
 20
513.66666666666663
 10
50.444444444444443
 20
513.11111111111109
 10
50.222222222222221
 20
512.55555555555554
 10
50.0
 20
512.0
 10
49.777777777777779
 20
511.44444444444446
 10
49.555555555555557
 20
510.77777777777777
 10
49.333333333333336
 20
510.22222222222223
 10
49.111111111111114
 20
509.66666666666669
 10
48.777777777777779
 20
509.22222222222223
 10
48.555555555555557
 20
508.66666666666669
 10
48.222222222222221
 20
508.11111111111109
 10
47.888888888888886
 20
507.55555555555554
 10
47.666666666666664
 20
507.11111111111109
 10
47.333333333333336
 20
506.55555555555554
 10
46.888888888888886
 20
506.11111111111109
 10
46.555555555555557
 20
505.55555555555554
 10
46.222222222222221
 20
505.11111111111109
 10
45.888888888888886
 20
504.66666666666669
 10
45.444444444444443
 20
504.22222222222223
 10
45.111111111111114
 20
503.77777777777777
 10
44.666666666666664
 20
503.33333333333331
 10
44.222222222222221
 20
502.88888888888891
 10
43.777777777777779
 20
502.44444444444446
 10
43.333333333333336
 20
502.0
 10
42.888888888888886
 20
501.66666666666669
 10
42.444444444444443
 20
501.22222222222223
 10
42.0
 20
500.88888888888891
 10
41.555555555555557
 20
500.55555555555554
 10
41.0
 20
500.11111111111109
 10
40.555555555555557
 20
499.77777777777777
 10
40.0
 20
499.44444444444446
 10
39.555555555555557
 20
499.11111111111109
 10
39.0
 20
498.88888888888891
 10
38.444444444444443
 20
498.55555555555554
 10
37.888888888888886
 20
498.22222222222223
 10
37.333333333333336
 20
498.0
 10
36.777777777777779
 20
497.77777777777777
 10
36.222222222222221
 20
497.44444444444446
 10
35.666666666666664
 20
497.22222222222223
 10
35.111111111111114
 20
497.0
 10
34.555555555555557
 20
496.88888888888891
 10
34.0
 20
496.66666666666669
 10
33.333333333333336
 20
496.44444444444446
 10
32.777777777777779
 20
496.33333333333331
 10
32.222222222222221
 20
496.11111111111109
 10
31.555555555555557
 20
496.0
 10
31.0
 20
495.88888888888891
 10
30.333333333333332
 20
495.77777777777777
 10
29.666666666666668
 20
495.66666666666669
 10
29.111111111111111
 20
495.66666666666669
 10
28.444444444444443
 20
495.55555555555554
 10
27.777777777777779
 20
495.55555555555554
 10
27.222222222222221
 20
495.55555555555554
 10
26.555555555555557
 20
495.55555555555554
  0
LWPOLYLINE
  5
4D
  8
P
 62
0
370
-1
  6
CONTINUOUS
100
AcDbEntity
100
AcDbPolyline
 90
5
 70
0
 10
20.666666666666668
 20
519.11111111111109
 10
32.444444444444443
 20
519.11111111111109
 10
32.444444444444443
 20
522.0
 10
20.666666666666668
 20
522.0
 10
20.666666666666668
 20
519.11111111111109
  0
LWPOLYLINE
  5
4E
  8
P
 62
0
370
-1
  6
CONTINUOUS
100
AcDbEntity
100
AcDbPolyline
 90
260
 70
0
 10
83.666666666666671
 20
494.77777777777777
 10
83.111111111111114
 20
494.77777777777777
 10
82.444444444444443
 20
494.77777777777777
 10
81.777777777777771
 20
494.77777777777777
 10
81.222222222222229
 20
494.88888888888891
 10
80.555555555555557
 20
495.0
 10
80.0
 20
495.0
 10
79.444444444444443
 20
495.11111111111109
 10
78.777777777777771
 20
495.22222222222223
 10
78.222222222222229
 20
495.33333333333331
 10
77.666666666666671
 20
495.44444444444446
 10
77.111111111111114
 20
495.66666666666669
 10
76.444444444444443
 20
495.77777777777777
 10
75.888888888888886
 20
496.0
 10
75.333333333333329
 20
496.22222222222223
 10
74.777777777777771
 20
496.33333333333331
 10
74.222222222222229
 20
496.55555555555554
 10
73.666666666666671
 20
496.77777777777777
 10
73.222222222222229
 20
497.11111111111109
 10
72.666666666666671
 20
497.33333333333331
 10
72.111111111111114
 20
497.55555555555554
 10
71.666666666666671
 20
497.88888888888891
 10
71.111111111111114
 20
498.11111111111109
 10
70.555555555555557
 20
498.44444444444446
 10
70.111111111111114
 20
498.77777777777777
 10
69.666666666666671
 20
499.11111111111109
 10
69.111111111111114
 20
499.44444444444446
 10
68.666666666666671
 20
499.77777777777777
 10
68.222222222222229
 20
500.11111111111109
 10
67.777777777777771
 20
500.44444444444446
 10
67.333333333333329
 20
500.88888888888891
 10
66.888888888888886
 20
501.22222222222223
 10
66.444444444444443
 20
501.66666666666669
 10
66.0
 20
502.0
 10
65.666666666666671
 20
502.44444444444446
 10
65.222222222222229
 20
502.88888888888891
 10
64.888888888888886
 20
503.33333333333331
 10
64.444444444444443
 20
503.77777777777777
 10
64.111111111111114
 20
504.22222222222223
 10
63.777777777777779
 20
504.66666666666669
 10
63.444444444444443
 20
505.11111111111109
 10
63.111111111111114
 20
505.55555555555554
 10
62.777777777777779
 20
506.0
 10
62.444444444444443
 20
506.55555555555554
 10
62.111111111111114
 20
507.0
 10
61.888888888888886
 20
507.55555555555554
 10
61.555555555555557
 20
508.11111111111109
 10
61.333333333333336
 20
508.55555555555554
 10
61.0
 20
509.11111111111109
 10
60.777777777777779
 20
509.66666666666669
 10
60.555555555555557
 20
510.22222222222223
 10
60.333333333333336
 20
510.66666666666669
 10
60.111111111111114
 20
511.22222222222223
 10
59.888888888888886
 20
511.77777777777777
 10
59.777777777777779
 20
512.44444444444446
 10
59.555555555555557
 20
513.0
 10
59.444444444444443
 20
513.55555555555554
 10
59.333333333333336
 20
514.11111111111109
 10
59.111111111111114
 20
514.66666666666663
 10
59.0
 20
515.33333333333337
 10
58.888888888888886
 20
515.88888888888891
 10
58.888888888888886
 20
516.44444444444446
 10
58.777777777777779
 20
517.11111111111109
 10
58.777777777777779
 20
517.66666666666663
 10
58.666666666666664
 20
518.33333333333337
 10
61.555555555555557
 20
518.33333333333337
 10
61.555555555555557
 20
521.33333333333337
 10
58.666666666666664
 20
521.33333333333337
 10
58.777777777777779
 20
521.88888888888891
 10
58.777777777777779
 20
522.55555555555554
 10
58.888888888888886
 20
523.11111111111109
 10
58.888888888888886
 20
523.66666666666663
 10
59.0
 20
524.33333333333337
 10
59.111111111111114
 20
524.88888888888891
 10
59.333333333333336
 20
525.44444444444446
 10
59.444444444444443
 20
526.11111111111109
 10
59.555555555555557
 20
526.66666666666663
 10
59.777777777777779
 20
527.22222222222217
 10
59.888888888888886
 20
527.77777777777783
 10
60.111111111111114
 20
528.33333333333337
 10
60.333333333333336
 20
528.88888888888891
 10
60.555555555555557
 20
529.44444444444446
 10
60.777777777777779
 20
530.0
 10
61.0
 20
530.55555555555554
 10
61.333333333333336
 20
531.0
 10
61.555555555555557
 20
531.55555555555554
 10
61.888888888888886
 20
532.11111111111109
 10
62.111111111111114
 20
532.55555555555554
 10
62.444444444444443
 20
533.11111111111109
 10
62.777777777777779
 20
533.55555555555554
 10
63.111111111111114
 20
534.0
 10
63.444444444444443
 20
534.55555555555554
 10
63.777777777777779
 20
535.0
 10
64.111111111111114
 20
535.44444444444446
 10
64.444444444444443
 20
535.88888888888891
 10
64.888888888888886
 20
536.33333333333337
 10
65.222222222222229
 20
536.77777777777783
 10
65.666666666666671
 20
537.22222222222217
 10
66.0
 20
537.55555555555554
 10
66.444444444444443
 20
538.0
 10
66.888888888888886
 20
538.33333333333337
 10
67.333333333333329
 20
538.77777777777783
 10
67.777777777777771
 20
539.11111111111109
 10
68.222222222222229
 20
539.55555555555554
 10
68.666666666666671
 20
539.88888888888891
 10
69.111111111111114
 20
540.22222222222217
 10
69.666666666666671
 20
540.55555555555554
 10
70.111111111111114
 20
540.88888888888891
 10
70.555555555555557
 20
541.11111111111109
 10
71.111111111111114
 20
541.44444444444446
 10
71.666666666666671
 20
541.77777777777783
 10
72.111111111111114
 20
542.0
 10
72.666666666666671
 20
542.33333333333337
 10
73.222222222222229
 20
542.55555555555554
 10
73.666666666666671
 20
542.77777777777783
 10
74.222222222222229
 20
543.0
 10
74.777777777777771
 20
543.22222222222217
 10
75.333333333333329
 20
543.44444444444446
 10
75.888888888888886
 20
543.66666666666663
 10
76.444444444444443
 20
543.77777777777783
 10
77.111111111111114
 20
544.0
 10
77.666666666666671
 20
544.11111111111109
 10
78.222222222222229
 20
544.22222222222217
 10
78.777777777777771
 20
544.33333333333337
 10
79.444444444444443
 20
544.44444444444446
 10
80.0
 20
544.55555555555554
 10
80.555555555555557
 20
544.66666666666663
 10
81.222222222222229
 20
544.66666666666663
 10
81.777777777777771
 20
544.77777777777783
 10
82.444444444444443
 20
544.77777777777783
 10
83.111111111111114
 20
544.77777777777783
 10
83.666666666666671
 20
544.88888888888891
 10
84.333333333333329
 20
544.77777777777783
 10
85.0
 20
544.77777777777783
 10
85.555555555555557
 20
544.77777777777783
 10
86.222222222222229
 20
544.66666666666663
 10
86.888888888888886
 20
544.66666666666663
 10
87.444444444444443
 20
544.55555555555554
 10
88.111111111111114
 20
544.44444444444446
 10
88.777777777777771
 20
544.33333333333337
 10
89.333333333333329
 20
544.22222222222217
 10
89.888888888888886
 20
544.0
 10
90.555555555555557
 20
543.88888888888891
 10
91.111111111111114
 20
543.66666666666663
 10
91.666666666666671
 20
543.55555555555554
 10
92.333333333333329
 20
543.33333333333337
 10
92.888888888888886
 20
543.11111111111109
 10
93.444444444444443
 20
542.88888888888891
 10
94.0
 20
542.66666666666663
 10
94.555555555555557
 20
542.33333333333337
 10
95.111111111111114
 20
542.11111111111109
 10
95.666666666666671
 20
541.77777777777783
 10
96.111111111111114
 20
541.55555555555554
 10
96.666666666666671
 20
541.22222222222217
 10
97.222222222222229
 20
540.88888888888891
 10
97.666666666666671
 20
540.55555555555554
 10
98.222222222222229
 20
540.22222222222217
 10
98.666666666666671
 20
539.88888888888891
 10
99.111111111111114
 20
539.55555555555554
 10
99.666666666666671
 20
539.11111111111109
 10
100.11111111111111
 20
538.77777777777783
 10
100.55555555555556
 20
538.33333333333337
 10
101.0
 20
537.88888888888891
 10
101.44444444444444
 20
537.55555555555554
 10
101.77777777777777
 20
537.11111111111109
 10
102.22222222222223
 20
536.66666666666663
 10
102.66666666666667
 20
536.22222222222217
 10
103.0
 20
535.77777777777783
 10
103.33333333333333
 20
535.22222222222217
 10
103.77777777777777
 20
534.77777777777783
 10
104.11111111111111
 20
534.33333333333337
 10
104.44444444444444
 20
533.77777777777783
 10
104.77777777777777
 20
533.33333333333337
 10
105.11111111111111
 20
532.77777777777783
 10
105.44444444444444
 20
532.22222222222217
 10
105.66666666666667
 20
531.77777777777783
 10
106.0
 20
531.22222222222217
 10
106.22222222222223
 20
530.66666666666663
 10
106.55555555555556
 20
530.11111111111109
 10
106.77777777777777
 20
529.55555555555554
 10
107.0
 20
529.0
 10
107.22222222222223
 20
528.44444444444446
 10
107.44444444444444
 20
527.88888888888891
 10
107.55555555555556
 20
527.22222222222217
 10
107.77777777777777
 20
526.66666666666663
 10
107.88888888888889
 20
526.11111111111109
 10
108.11111111111111
 20
525.44444444444446
 10
108.22222222222223
 20
524.88888888888891
 10
108.33333333333333
 20
524.22222222222217
 10
108.44444444444444
 20
523.66666666666663
 10
108.55555555555556
 20
523.0
 10
108.55555555555556
 20
522.33333333333337
 10
108.66666666666667
 20
521.77777777777783
 10
108.66666666666667
 20
521.11111111111109
 10
108.66666666666667
 20
520.44444444444446
 10
108.66666666666667
 20
519.77777777777783
 10
108.66666666666667
 20
519.11111111111109
 10
108.66666666666667
 20
518.55555555555554
 10
108.66666666666667
 20
517.88888888888891
 10
108.55555555555556
 20
517.22222222222217
 10
108.55555555555556
 20
516.55555555555554
 10
108.44444444444444
 20
516.0
 10
108.33333333333333
 20
515.33333333333337
 10
108.22222222222223
 20
514.77777777777783
 10
108.11111111111111
 20
514.11111111111109
 10
107.88888888888889
 20
513.55555555555554
 10
107.77777777777777
 20
512.88888888888891
 10
107.55555555555556
 20
512.33333333333337
 10
107.44444444444444
 20
511.77777777777777
 10
107.22222222222223
 20
511.22222222222223
 10
107.0
 20
510.66666666666669
 10
106.77777777777777
 20
510.0
 10
106.55555555555556
 20
509.44444444444446
 10
106.22222222222223
 20
508.88888888888891
 10
106.0
 20
508.44444444444446
 10
105.66666666666667
 20
507.88888888888891
 10
105.44444444444444
 20
507.33333333333331
 10
105.11111111111111
 20
506.77777777777777
 10
104.77777777777777
 20
506.33333333333331
 10
104.44444444444444
 20
505.77777777777777
 10
104.11111111111111
 20
505.33333333333331
 10
103.77777777777777
 20
504.77777777777777
 10
103.33333333333333
 20
504.33333333333331
 10
103.0
 20
503.88888888888891
 10
102.66666666666667
 20
503.44444444444446
 10
102.22222222222223
 20
503.0
 10
101.77777777777777
 20
502.55555555555554
 10
101.44444444444444
 20
502.11111111111109
 10
101.0
 20
501.66666666666669
 10
100.55555555555556
 20
501.22222222222223
 10
100.11111111111111
 20
500.88888888888891
 10
99.666666666666671
 20
500.44444444444446
 10
99.111111111111114
 20
500.11111111111109
 10
98.666666666666671
 20
499.77777777777777
 10
98.222222222222229
 20
499.33333333333331
 10
97.666666666666671
 20
499.0
 10
97.222222222222229
 20
498.66666666666669
 10
96.666666666666671
 20
498.33333333333331
 10
96.111111111111114
 20
498.11111111111109
 10
95.666666666666671
 20
497.77777777777777
 10
95.111111111111114
 20
497.44444444444446
 10
94.555555555555557
 20
497.22222222222223
 10
94.0
 20
497.0
 10
93.444444444444443
 20
496.77777777777777
 10
92.888888888888886
 20
496.44444444444446
 10
92.333333333333329
 20
496.33333333333331
 10
91.666666666666671
 20
496.11111111111109
 10
91.111111111111114
 20
495.88888888888891
 10
90.555555555555557
 20
495.66666666666669
 10
89.888888888888886
 20
495.55555555555554
 10
89.333333333333329
 20
495.44444444444446
 10
88.777777777777771
 20
495.22222222222223
 10
88.111111111111114
 20
495.11111111111109
 10
87.444444444444443
 20
495.0
 10
86.888888888888886
 20
495.0
 10
86.222222222222229
 20
494.88888888888891
 10
85.555555555555557
 20
494.77777777777777
 10
85.0
 20
494.77777777777777
 10
84.333333333333329
 20
494.77777777777777
 10
83.666666666666671
 20
494.77777777777777
  0
LWPOLYLINE
  5
4F
  8
P
 62
0
370
-1
  6
CONTINUOUS
100
AcDbEntity
100
AcDbPolyline
 90
5
 70
0
 10
77.777777777777771
 20
518.33333333333337
 10
89.555555555555557
 20
518.33333333333337
 10
89.555555555555557
 20
521.33333333333337
 10
77.777777777777771
 20
521.33333333333337
 10
77.777777777777771
 20
518.33333333333337
  0
LWPOLYLINE
  5
50
  8
P
 62
0
370
-1
  6
CONTINUOUS
100
AcDbEntity
100
AcDbPolyline
 90
29
 70
0
 10
28.444444444444443
 20
546.55555555555554
 10
28.444444444444443
 20
555.44444444444446
 10
52.0
 20
555.44444444444446
 10
52.0
 20
558.33333333333337
 10
77.111111111111114
 20
558.33333333333337
 10
77.111111111111114
 20
555.44444444444446
 10
63.888888888888886
 20
555.44444444444446
 10
63.888888888888886
 20
552.44444444444446
 10
60.888888888888886
 20
552.44444444444446
 10
60.888888888888886
 20
549.55555555555554
 10
63.888888888888886
 20
549.55555555555554
 10
63.888888888888886
 20
546.55555555555554
 10
58.0
 20
546.55555555555554
 10
58.0
 20
493.55555555555554
 10
63.888888888888886
 20
493.55555555555554
 10
63.888888888888886
 20
490.55555555555554
 10
60.888888888888886
 20
490.55555555555554
 10
60.888888888888886
 20
487.66666666666669
 10
63.888888888888886
 20
487.66666666666669
 10
63.888888888888886
 20
484.66666666666669
 10
77.111111111111114
 20
484.66666666666669
 10
77.111111111111114
 20
481.77777777777777
 10
47.666666666666664
 20
481.77777777777777
 10
47.666666666666664
 20
484.66666666666669
 10
28.444444444444443
 20
484.66666666666669
 10
28.444444444444443
 20
493.55555555555554
 10
52.0
 20
493.55555555555554
 10
52.0
 20
546.55555555555554
 10
28.444444444444443
 20
546.55555555555554
  0
LWPOLYLINE
  5
51
  8
P
 62
0
370
-1
  6
CONTINUOUS
100
AcDbEntity
100
AcDbPolyline
 90
29
 70
0
 10
86.444444444444443
 20
546.0
 10
86.444444444444443
 20
554.88888888888891
 10
110.0
 20
554.88888888888891
 10
110.0
 20
557.88888888888891
 10
135.0
 20
557.88888888888891
 10
135.0
 20
554.88888888888891
 10
121.77777777777777
 20
554.88888888888891
 10
121.77777777777777
 20
551.88888888888891
 10
115.88888888888889
 20
551.88888888888891
 10
115.88888888888889
 20
549.0
 10
121.77777777777777
 20
549.0
 10
121.77777777777777
 20
546.0
 10
115.88888888888889
 20
546.0
 10
115.88888888888889
 20
493.0
 10
121.77777777777777
 20
493.0
 10
121.77777777777777
 20
490.11111111111109
 10
115.88888888888889
 20
490.11111111111109
 10
115.88888888888889
 20
487.11111111111109
 10
121.77777777777777
 20
487.11111111111109
 10
121.77777777777777
 20
484.22222222222223
 10
135.0
 20
484.22222222222223
 10
135.0
 20
481.22222222222223
 10
105.55555555555556
 20
481.22222222222223
 10
105.55555555555556
 20
484.22222222222223
 10
86.444444444444443
 20
484.22222222222223
 10
86.444444444444443
 20
493.0
 10
110.0
 20
493.0
 10
110.0
 20
546.0
 10
86.444444444444443
 20
546.0
  0
LWPOLYLINE
  5
52
  8
P
 62
0
370
-1
  6
CONTINUOUS
100
AcDbEntity
100
AcDbPolyline
 90
29
 70
0
 10
121.77777777777777
 20
546.0
 10
121.77777777777777
 20
554.88888888888891
 10
145.33333333333334
 20
554.88888888888891
 10
145.33333333333334
 20
557.88888888888891
 10
170.33333333333334
 20
557.88888888888891
 10
170.33333333333334
 20
554.88888888888891
 10
157.11111111111111
 20
554.88888888888891
 10
157.11111111111111
 20
551.88888888888891
 10
151.22222222222223
 20
551.88888888888891
 10
151.22222222222223
 20
549.0
 10
157.11111111111111
 20
549.0
 10
157.11111111111111
 20
546.0
 10
151.22222222222223
 20
546.0
 10
151.22222222222223
 20
493.0
 10
157.11111111111111
 20
493.0
 10
157.11111111111111
 20
490.11111111111109
 10
151.22222222222223
 20
490.11111111111109
 10
151.22222222222223
 20
487.11111111111109
 10
157.11111111111111
 20
487.11111111111109
 10
157.11111111111111
 20
484.22222222222223
 10
170.33333333333334
 20
484.22222222222223
 10
170.33333333333334
 20
481.22222222222223
 10
140.88888888888889
 20
481.22222222222223
 10
140.88888888888889
 20
484.22222222222223
 10
121.77777777777777
 20
484.22222222222223
 10
121.77777777777777
 20
493.0
 10
145.33333333333334
 20
493.0
 10
145.33333333333334
 20
546.0
 10
121.77777777777777
 20
546.0
  0
ENDSEC
  0
SECTION
  2
OBJECTS
  0
DICTIONARY
  5
C
100
AcDbDictionary
280
0
281
1
  3
ACAD_GROUP
350
D
  3
ACAD_LAYOUT
350
1A
  3
ACAD_MLINESTYLE
350
17
  3
ACAD_PLOTSETTINGS
350
19
  3
ACAD_PLOTSTYLENAME
350
E
  3
AcDbVariableDictionary
350
53
  0
DICTIONARY
  5
D
100
AcDbDictionary
280
0
281
1
  0
ACDBDICTIONARYWDFLT
  5
E
100
AcDbDictionary
281
1
  3
Normal
350
F
100
AcDbDictionaryWithDefault
340
F
  0
ACDBPLACEHOLDER
  5
F
  0
DICTIONARY
  5
17
100
AcDbDictionary
280
0
281
1
  3
Standard
350
18
  0
MLINESTYLE
  5
18
100
AcDbMlineStyle
  2
STANDARD
 70
0
  3

 62
256
 51
90.0
 52
90.0
 71
2
 49
0.5
 62
256
  6
BYLAYER
 49
-0.5
 62
256
  6
BYLAYER
  0
DICTIONARY
  5
19
100
AcDbDictionary
280
0
281
1
  0
DICTIONARY
  5
1A
100
AcDbDictionary
281
1
  3
Layout1
350
1E
  3
Layout2
350
26
  3
Model
350
22
  0
LAYOUT
  5
1E
100
AcDbPlotSettings
  1

  2
C:\Program Files\AutoCAD 2002\plotters\DWF ePlot (optimized for plotting).pc3
  4

  6

 40
0.0
 41
0.0
 42
0.0
 43
0.0
 44
0.0
 45
0.0
 46
0.0
 47
0.0
 48
0.0
 49
0.0
140
0.0
141
0.0
142
1.0
143
1.0
 70
688
 72
0
 73
0
 74
5
  7

 75
16
147
1.0
148
0.0
149
0.0
100
AcDbLayout
  1
Layout1
 70
1
 71
1
 10
0.0
 20
0.0
 11
420.0
 21
297.0
 12
0.0
 22
0.0
 32
0.0
 14
100000000000000000000.0
 24
100000000000000000000.0
 34
100000000000000000000.0
 15
-100000000000000000000.0
 25
-100000000000000000000.0
 35
-100000000000000000000.0
146
0.0
 13
0.0
 23
0.0
 33
0.0
 16
1.0
 26
0.0
 36
0.0
 17
0.0
 27
1.0
 37
0.0
 76
0
330
1B
  0
LAYOUT
  5
22
100
AcDbPlotSettings
  1

  2
C:\Program Files\AutoCAD 2002\plotters\DWF ePlot (optimized for plotting).pc3
  4

  6

 40
0.0
 41
0.0
 42
0.0
 43
0.0
 44
0.0
 45
0.0
 46
0.0
 47
0.0
 48
0.0
 49
0.0
140
0.0
141
0.0
142
1.0
143
1.0
 70
1712
 72
0
 73
0
 74
0
  7

 75
0
147
1.0
148
0.0
149
0.0
100
AcDbLayout
  1
Model
 70
1
 71
0
 10
0.0
 20
0.0
 11
12.0
 21
9.0
 12
0.0
 22
0.0
 32
0.0
 14
0.0
 24
0.0
 34
0.0
 15
0.0
 25
0.0
 35
0.0
146
0.0
 13
0.0
 23
0.0
 33
0.0
 16
1.0
 26
0.0
 36
0.0
 17
0.0
 27
1.0
 37
0.0
 76
0
330
1F
  0
LAYOUT
  5
26
100
AcDbPlotSettings
  1

  2
C:\Program Files\AutoCAD 2002\plotters\DWF ePlot (optimized for plotting).pc3
  4

  6

 40
0.0
 41
0.0
 42
0.0
 43
0.0
 44
0.0
 45
0.0
 46
0.0
 47
0.0
 48
0.0
 49
0.0
140
0.0
141
0.0
142
1.0
143
1.0
 70
688
 72
0
 73
0
 74
5
  7

 75
16
147
1.0
148
0.0
149
0.0
100
AcDbLayout
  1
Layout2
 70
1
 71
2
 10
0.0
 20
0.0
 11
12.0
 21
9.0
 12
0.0
 22
0.0
 32
0.0
 14
0.0
 24
0.0
 34
0.0
 15
0.0
 25
0.0
 35
0.0
146
0.0
 13
0.0
 23
0.0
 33
0.0
 16
1.0
 26
0.0
 36
0.0
 17
0.0
 27
1.0
 37
0.0
 76
0
330
23
  0
DICTIONARY
  5
53
100
AcDbDictionary
281
1
  3
DIMASSOC
350
55
  3
HIDETEXT
350
54
  0
DICTIONARYVAR
  5
54
100
DictionaryVariables
280
0
  1
2
  0
DICTIONARYVAR
  5
55
100
DictionaryVariables
280
0
  1
1
  0
ENDSEC
  0
EOF
